<svg aria-hidden="true" style="position: absolute; width: 0; height: 0; overflow: hidden;" version="1.1" xmlns="http://www.w3.org/2000/svg" xmlns:xlink="http://www.w3.org/1999/xlink">
<defs>
<!-- <symbol id="icon-view_list" viewBox="0 0 24 24">
<title>view_list</title>
<path d="M9 5.016h12v3.984h-12v-3.984zM9 18.984v-3.984h12v3.984h-12zM9 14.016v-4.031h12v4.031h-12zM3.984 9v-3.984h4.031v3.984h-4.031zM3.984 18.984v-3.984h4.031v3.984h-4.031zM3.984 14.016v-4.031h4.031v4.031h-4.031z"></path>
</symbol> -->
<symbol id="icon-update" viewBox="0 0 24 24"> //
<title>update</title>
<path d="M12.516 8.016v4.219l3.469 2.109-0.703 1.219-4.266-2.578v-4.969h1.5zM21 10.125h-6.797l2.766-2.813q-2.063-2.063-4.945-2.086t-4.945 1.992q-0.844 0.844-1.453 2.273t-0.609 2.602 0.609 2.602 1.453 2.273 2.297 1.453 2.625 0.609 2.648-0.609 2.32-1.453q2.016-2.016 2.016-4.875h2.016q0 3.703-2.625 6.281-2.625 2.625-6.375 2.625t-6.375-2.625q-2.625-2.578-2.625-6.258t2.625-6.305q1.078-1.078 2.93-1.852t3.398-0.773 3.398 0.773 2.93 1.852l2.719-2.813v7.125z"></path>
</symbol>
<symbol id="icon-star" viewBox="0 0 20 20"> //
<title>star</title>
<path d="M10 1.3l2.388 6.722h6.412l-5.232 3.948 1.871 6.928-5.439-4.154-5.438 4.154 1.87-6.928-5.233-3.948h6.412l2.389-6.722z"></path>
</symbol>
<symbol id="icon-mic" viewBox="0 0 20 20">
<title>mic</title> //
<path d="M16.399 7.643v2.757c0 2.236-1.643 4.629-5.399 4.959v2.641h2.6c0.22 0 0.4 0.18 0.4 0.4v1.2c0 0.221-0.181 0.4-0.4 0.4h-7.2c-0.22 0-0.4-0.18-0.4-0.4v-1.2c0-0.22 0.18-0.4 0.399-0.4h2.601v-2.641c-3.758-0.33-5.4-2.723-5.4-4.959v-2.757c0-0.221 0.18-0.4 0.4-0.4h0.6c0.22 0 0.4 0.18 0.4 0.4v2.757c0 1.336 1.053 3.6 5 3.6s5-2.264 5-3.6v-2.757c0-0.221 0.18-0.4 0.399-0.4h0.601c0.22-0.001 0.399 0.179 0.399 0.4zM10 12c2.346 0 3-0.965 3-1.6v-3.158h-6v3.158c0 0.635 0.652 1.6 3 1.6zM13 1.6c0-0.637-0.654-1.6-3-1.6-2.348 0-3 0.963-3 1.6v4.242h6v-4.242z"></path>
</symbol>
<!-- <symbol id="icon-theater-mask" viewBox="0 0 512.001 512.001">
<title>mask</title> //
<path d="M509.071,80.269c-31.932-31.931-90.81-56.002-131.526-66.912C345.869,4.87,310.238,0.001,279.788,0.001
			c-19.194,0-35.883,1.864-49.604,5.54c-3.451,0.925-6.146,3.62-7.071,7.071c-2.936,10.959-5.456,22.406-7.554,34.144
			c-0.08,0.343-0.139,0.692-0.182,1.046c-8.146,46.182-9.73,96.785-4.089,140.162c-25.231,1.623-52.106,6.029-76.833,12.655
			C93.741,211.528,34.865,235.596,2.93,267.53c-2.526,2.526-3.514,6.208-2.589,9.659c3.192,11.912,7.087,24.064,11.569,36.243
			c0.006,0.015,0.011,0.03,0.017,0.045c15.444,41.943,37.923,84.194,63.22,118.032c27.451,36.72,70.678,80.49,120.716,80.49
			c7.19,0,14.35-0.941,21.278-2.798c30.538-8.183,54.524-33.685,69.363-73.749c11.294-30.49,17.307-68.873,17.583-111.611
			c3.984,0.59,8.012,0.898,12.05,0.898c50.035,0,93.262-43.773,120.715-80.493c32.654-43.679,60.619-101.367,74.808-154.317
			C512.584,86.478,511.598,82.795,509.071,80.269z M211.965,489.883c-5.241,1.404-10.659,2.116-16.103,2.116
			c-32.58,0-69.762-25.735-104.697-72.465c-22.898-30.63-43.379-68.472-58.024-106.45c5.392-4.183,14.006-10.686,22.938-16.712
			c4.578-3.089,5.786-9.304,2.697-13.883c-3.089-4.578-9.304-5.786-13.883-2.697c-6.928,4.674-13.57,9.538-18.84,13.522
			c-1.729-5.223-3.341-10.426-4.814-15.588c24.918-22.389,71.457-45.215,118.393-57.789c24.115-6.462,50.36-10.702,74.834-12.136
			c3.2,16.686,7.512,31.784,12.884,45.195c0.024,0.061,0.049,0.123,0.074,0.186c0.517,1.286,1.043,2.559,1.579,3.813
			c0.03,0.069,0.06,0.138,0.089,0.206c2.75,6.41,5.753,12.408,9.01,17.979c0.043,0.073,0.085,0.15,0.128,0.225
			c0.012,0.02,0.024,0.039,0.036,0.059c0.188,0.319,0.367,0.649,0.557,0.966c0.398,0.666,0.813,1.301,1.219,1.954
			c0.262,0.421,0.523,0.845,0.787,1.261c0.564,0.888,1.137,1.76,1.714,2.622c0.28,0.418,0.561,0.832,0.845,1.244
			c0.592,0.861,1.188,1.714,1.792,2.549c0.252,0.349,0.509,0.688,0.763,1.032c0.654,0.883,1.31,1.762,1.979,2.615
			c0.073,0.092,0.148,0.181,0.221,0.273c1.316,1.667,2.663,3.268,4.036,4.818c-6.022,7.564-15.255,12.118-25.073,12.118
			c-11.409,0-22.04-6.138-27.744-16.018c-2.761-4.782-8.874-6.421-13.66-3.66c-4.783,2.762-6.422,8.877-3.66,13.66
			c9.266,16.048,26.533,26.018,45.064,26.018c15.443,0,30.005-6.929,39.793-18.523c3.265,2.415,6.657,4.555,10.16,6.445
			c0.146,0.079,0.29,0.161,0.436,0.239c0.919,0.488,1.848,0.954,2.782,1.406c0.26,0.126,0.52,0.252,0.78,0.375
			c0.899,0.424,1.806,0.833,2.72,1.224c0.111,0.048,0.22,0.103,0.332,0.149C284.445,393.031,265.781,475.463,211.965,489.883z
			 M420.833,232.27c-34.938,46.732-72.119,72.469-104.696,72.469c-5.442,0-10.859-0.712-16.1-2.116
			c-0.971-0.26-1.922-0.55-2.866-0.853c-0.028-0.01-0.057-0.021-0.086-0.031c-43.247-13.906-58.932-72.342-64.433-105.938
			c-0.012-0.074-0.032-0.145-0.046-0.22c-0.099-0.605-0.195-1.203-0.288-1.794c-6.477-41.222-5.699-90.483,1.632-135.928
			c6.753-0.925,17.464-2.251,28.238-3.005c5.509-0.386,9.663-5.164,9.277-10.674c-0.387-5.509-5.14-9.678-10.674-9.277
			c-8.3,0.58-16.45,1.467-22.991,2.279c0.979-4.618,2.024-9.181,3.146-13.661c10.969-2.338,24-3.52,38.842-3.52
			c28.777,0,62.521,4.619,92.581,12.674c46.934,12.576,93.474,35.405,118.391,57.791
			C476.766,139.493,450.875,192.085,420.833,232.27z"/>
				<path d="M446.104,155.023c-9.266-16.049-26.533-26.019-45.064-26.019s-35.799,9.97-45.064,26.019
			c-2.762,4.783-1.123,10.898,3.66,13.66c4.785,2.761,10.9,1.123,13.66-3.66c5.704-9.881,16.335-16.019,27.744-16.019
			s22.04,6.138,27.744,16.019c1.853,3.208,5.213,5.002,8.67,5.002c1.696,0,3.415-0.433,4.99-1.342
			C447.227,165.921,448.866,159.806,446.104,155.023z"/>
				<path d="M297.637,99.636c-16.05-9.267-35.988-9.265-52.036,0c-4.783,2.762-6.422,8.877-3.66,13.66
			c2.762,4.782,8.875,6.423,13.66,3.66c9.879-5.704,22.155-5.704,32.036,0c9.882,5.706,16.019,16.337,16.019,27.745
			c0,5.522,4.478,10,10,10c5.522,0,10-4.478,10-10C323.656,126.171,313.686,108.903,297.637,99.636z"/>
				<path d="M363.19,226.906c-3.907-3.905-10.237-3.905-14.143,0c-8.065,8.067-19.927,11.246-30.943,8.292
			c-11.021-2.953-19.701-11.634-22.654-22.653c-1.429-5.334-6.91-8.499-12.248-7.07c-5.334,1.43-8.5,6.913-7.07,12.248
			c4.797,17.898,18.896,31.997,36.796,36.794c4.421,1.185,8.926,1.762,13.399,1.762c13.64,0,26.996-5.363,36.863-15.23
			C367.095,237.144,367.095,230.812,363.19,226.906z"/>
				<path d="M133.389,301.258h-0.001c-5.522,0-10,4.477-10,9.999c-0.001,11.409-6.139,22.04-16.018,27.745
			c-9.881,5.704-22.155,5.705-32.036,0c-4.784-2.762-10.899-1.122-13.66,3.66c-2.762,4.783-1.123,10.898,3.66,13.66
			c8.024,4.633,17.021,6.949,26.018,6.949s17.994-2.316,26.019-6.949c16.048-9.267,26.018-26.533,26.018-45.064
			C143.388,305.736,138.911,301.258,133.389,301.258z"/>
				<path d="M238.72,415.625c-13.104-13.103-32.361-18.263-50.262-13.468c-17.9,4.796-32,18.895-36.796,36.796
			c-1.43,5.335,1.736,10.817,7.071,12.247c0.867,0.233,1.737,0.344,2.594,0.343c4.415,0,8.456-2.946,9.653-7.414
			c2.953-11.021,11.633-19.701,22.653-22.653c11.021-2.952,22.877,0.225,30.944,8.292c3.906,3.904,10.236,3.904,14.143,0
			C242.625,425.863,242.625,419.531,238.72,415.625z"/>
				<path d="M291.977,35.248c-0.246-0.039-0.496-0.078-0.748-0.115c-5.468-0.803-10.542,2.983-11.342,8.447
			c-0.799,5.465,2.983,10.543,8.448,11.342l0.478,0.074c0.536,0.086,1.068,0.128,1.595,0.128c4.825,0,9.073-3.503,9.861-8.42
			C301.143,41.251,297.43,36.121,291.977,35.248z"/>
				<path d="M84.999,270.308c-1.95-5.166-7.719-7.775-12.888-5.823c-0.249,0.094-0.5,0.191-0.752,0.292
			c-5.13,2.047-7.629,7.864-5.582,12.994c1.562,3.914,5.32,6.297,9.292,6.297c1.233,0,2.487-0.23,3.703-0.715l0.404-0.157
			C84.343,281.245,86.95,275.475,84.999,270.308z"/>
</symbol> -->
<!-- <symbol id="icon-keyboard_arrow_down" viewBox="0 0 24 24"> 
<title>keyboard_arrow_down</title>
<path d="M7.406 8.578l4.594 4.594 4.594-4.594 1.406 1.406-6 6-6-6z"></path>
</symbol> -->
<symbol id="icon-calendar" viewBox="0 0 34 32"> //
<title>calendar</title>
<path d="M34 30.5v-19c0-0.276-0.224-0.5-0.5-0.5s-0.5 0.224-0.5 0.5v19c0 0.276-0.224 0.5-0.5 0.5h-31c-0.276 0-0.5-0.224-0.5-0.5v-19c0-0.276-0.224-0.5-0.5-0.5s-0.5 0.224-0.5 0.5v19c0 0.827 0.673 1.5 1.5 1.5h31c0.827 0 1.5-0.673 1.5-1.5zM4.5 23c-0.276 0-0.5 0.224-0.5 0.5s0.224 0.5 0.5 0.5h1.5v3.5c0 0.276 0.224 0.5 0.5 0.5s0.5-0.224 0.5-0.5v-3.5h6v3.5c0 0.276 0.224 0.5 0.5 0.5s0.5-0.224 0.5-0.5v-3.5h6v3.5c0 0.276 0.224 0.5 0.5 0.5s0.5-0.224 0.5-0.5v-3.5h6v3.5c0 0.276 0.224 0.5 0.5 0.5s0.5-0.224 0.5-0.5v-3.5h1.5c0.276 0 0.5-0.224 0.5-0.5s-0.224-0.5-0.5-0.5h-1.5v-5h1.5c0.276 0 0.5-0.224 0.5-0.5s-0.224-0.5-0.5-0.5h-1.5v-4.5c0-0.276-0.224-0.5-0.5-0.5s-0.5 0.224-0.5 0.5v4.5h-6v-4.5c0-0.276-0.224-0.5-0.5-0.5s-0.5 0.224-0.5 0.5v4.5h-6v-4.5c0-0.276-0.224-0.5-0.5-0.5s-0.5 0.224-0.5 0.5v4.5h-6v-4.5c0-0.276-0.224-0.5-0.5-0.5s-0.5 0.224-0.5 0.5v4.5h-1.5c-0.276 0-0.5 0.224-0.5 0.5s0.224 0.5 0.5 0.5h1.5v5h-1.5zM27 18v5h-6v-5h6zM20 18v5h-6v-5h6zM7 18h6v5h-6v-5zM28.5 3h4.25c0.087 0 0.25 0 0.25 0.5v4.5h-32v-4.5c0-0.276 0.224-0.5 0.5-0.5h4c0.276 0 0.5-0.224 0.5-0.5s-0.224-0.5-0.5-0.5h-4c-0.827 0-1.5 0.673-1.5 1.5v5c0 0.276 0.224 0.5 0.5 0.5h33c0.276 0 0.5-0.224 0.5-0.5v-5c0-1.106-0.646-1.5-1.25-1.5h-4.25c-0.276 0-0.5 0.224-0.5 0.5s0.224 0.5 0.5 0.5zM22.5 3c0.276 0 0.5-0.224 0.5-0.5s-0.224-0.5-0.5-0.5h-11c-0.276 0-0.5 0.224-0.5 0.5s0.224 0.5 0.5 0.5h11zM9 4.5v-4c0-0.276-0.224-0.5-0.5-0.5s-0.5 0.224-0.5 0.5v4c0 0.276 0.224 0.5 0.5 0.5s0.5-0.224 0.5-0.5zM25.5 5c0.276 0 0.5-0.224 0.5-0.5v-4c0-0.276-0.224-0.5-0.5-0.5s-0.5 0.224-0.5 0.5v4c0 0.276 0.224 0.5 0.5 0.5z"></path>
</symbol>
<symbol id="icon-star_outline" viewBox="0 0 24 24"> //
<title>star_outline</title>
<path d="M12 15.422l3.75 2.25-0.984-4.266 3.328-2.906-4.406-0.375-1.688-4.031-1.688 4.031-4.406 0.375 3.328 2.906-0.984 4.266zM21.984 9.234l-5.438 4.734 1.641 7.031-6.188-3.75-6.188 3.75 1.641-7.031-5.438-4.734 7.172-0.609 2.813-6.609 2.813 6.609z"></path>
</symbol>
<symbol id="icon-positive-vote" viewBox="-4 0 511 511.99964"> //
<title>positive-vote</title>
<path d="m498.429688 219.339844c-5.308594-8.015625-13.355469-13.539063-22.710938-15.632813 6.035156-11.542969 5.789062-25.945312-1.898438-37.550781-5.46875-8.261719-13.71875-13.597656-22.699218-15.617188 1.601562-3.054687 2.785156-6.351562 3.492187-9.828124 1.960938-9.667969.046875-19.519532-5.402343-27.742188-5.308594-8.019531-13.355469-13.542969-22.710938-15.632812 6.035156-11.542969 5.789062-25.945313-1.898438-37.554688-11.238281-16.972656-34.199218-21.640625-51.175781-10.398438l-36.757812 24.34375c-19.59375-9.9375-40.433594-16.988281-62.0625-21.003906-6.835938-10.378906-14.785157-20.027344-23.683594-28.652344l-15.207031-14.738281c-11.136719-10.796875-28.601563-12.417969-41.53125-3.851562-15.296875 10.128906-19.5 30.816406-9.371094 46.113281.398438.605469.789062 1.214844 1.175781 1.824219-49.847656 10.085937-95.277343 36.539062-128.902343 75.300781-36.488282 42.066406-56.585938 95.941406-56.585938 151.699219 0 10.6875.730469 21.394531 2.175781 31.816406 11.136719 81.019531 65.105469 150.839844 140.839844 182.21875 28.085937 11.640625 57.886719 17.546875 88.5625 17.546875 48.582031 0 95.085937-14.878906 134.488281-43.023438 38.546875-27.539062 67.386719-65.542968 83.40625-109.902343 1.496094-4.132813-.648437-8.699219-4.78125-10.191407-4.136718-1.492187-8.699218.648438-10.191406 4.785157-14.917969 41.308593-41.78125 76.699219-77.691406 102.351562-36.683594 26.207031-79.988282 40.058594-125.230469 40.058594-23.390625 0-46.230469-3.691406-68.089844-10.972656l64.773438-42.894531c.003906-.003907.007812-.003907.011719-.007813.003906 0 .003906-.003906.007812-.007813l53.832031-35.648437h.003907c4.832031-3.203125 8.132812-8.09375 9.289062-13.777344 1.15625-5.683593.03125-11.480469-3.171875-16.3125l-.710937-1.078125 10.457031-6.925781c7.460937-4.941406 16.433593-6.878906 25.269531-5.460937 12.792969 2.054687 25.785156-.757813 36.582031-7.910157l86.734375-57.4375c-.59375 7.523438-1.570312 15.003907-2.933594 22.359375-.804687 4.324219 2.050782 8.480469 6.375 9.28125.488282.09375.980469.136719 1.460938.136719 3.761719 0 7.105469-2.679687 7.816406-6.511719 2.207032-11.871094 3.476563-24.03125 3.804688-36.207031l24.441406-16.1875c8.222656-5.445313 13.835938-13.769531 15.796875-23.433594 1.964844-9.667969.046875-19.519531-5.398437-27.742187zm-177.21875-135.378906-24.324219 16.109374-4.789063-12.902343c-2-5.382813-4.292968-10.660157-6.832031-15.824219 12.339844 3.128906 24.355469 7.347656 35.945313 12.617188zm-252.097657 55.191406c32.316407-37.253906 76.335938-62.296875 124.492188-70.980469 7.726562 18.71875 9.578125 39.632813 4.960937 59.566406l-19.410156 83.855469c-3.050781-3.257812-7.011719-5.503906-11.472656-6.410156-5.6875-1.160156-11.480469-.03125-16.3125 3.171875l-54.980469 36.40625c-.003906 0-.003906 0-.007813.003906 0 0-.003906 0-.003906.003906l-79.296875 52.511719c-.433593-5.59375-.660156-11.230469-.660156-16.863281 0-51.921875 18.714844-102.09375 52.691406-141.265625zm207.191407 250.441406c-.308594 1.515625-1.191407 2.824219-2.484376 3.679688h.003907l-47.28125 31.308593-87.753907-130.871093c-2.449218-3.652344-7.394531-4.625-11.046874-2.175782-3.648438 2.449219-4.625 7.390625-2.175782 11.042969l87.699219 130.796875-67.496094 44.699219c-67.070312-29.335938-115.066406-91.289063-126.605469-163.378907l79.390626-52.402343 9.136718 13.632812c1.539063 2.289063 4.054688 3.527344 6.621094 3.527344 1.523438 0 3.066406-.433594 4.425781-1.347656 3.652344-2.449219 4.628907-7.394531 2.179688-11.046875l-9.074219-13.535156 48.320312-31.894532c1.285157-.855468 2.828126-1.152344 4.34375-.84375 1.515626.308594 2.824219 1.191406 3.679688 2.480469l107.273438 161.984375c.851562 1.285156 1.152343 2.828125.84375 4.34375zm211.921874-145.683594c-1.117187 5.5-4.308593 10.234375-8.988281 13.332032l-27.941406 18.503906c-.007813.003906-.015625.011718-.027344.015625l-99.730469 66.046875c-7.460937 4.941406-16.433593 6.882812-25.269531 5.460937-12.789062-2.050781-25.78125.757813-36.582031 7.910157l-10.457031 6.925781-87.859375-132.667969 22.710937-98.105469c5.847657-25.273437 2.765625-51.894531-8.375-75.085937-.101562-.242188-.210937-.476563-.335937-.707032-2.140625-4.382812-4.570313-8.636718-7.285156-12.738281-5.28125-7.976562-3.089844-18.761719 4.890624-24.046875 6.742188-4.464844 15.851563-3.621094 21.65625 2.007813l15.207032 14.742187c16.449218 15.949219 29.359375 35.730469 37.328125 57.207032l8.28125 22.308593c.015625.042969.03125.078125.046875.117188.019531.050781.042968.105469.0625.15625.058594.136719.113281.261719.171875.367187.160156.335938.335937.667969.546875.984375 2.429687 3.667969 7.367187 4.671875 11.03125 2.242188l84.910156-56.226563c9.65625-6.394531 22.714844-3.742187 29.109375 5.914063s3.742187 22.714843-5.914063 29.109375l-7.371093 4.882812s-.003907 0-.007813.003906l-16.441406 10.890626c-.023438.015624-.039062.03125-.0625.042968-.09375.066406-.183594.128906-.257812.191406-3.398438 2.496094-4.277344 7.242188-1.921876 10.796876 2.425782 3.667968 7.367188 4.671874 11.035157 2.242187l16.453125-10.898437c4.675781-3.089844 10.273437-4.179688 15.769531-3.0625 5.496094 1.117187 10.234375 4.308593 13.328125 8.988281 3.097656 4.675781 4.191406 10.28125 3.074219 15.777343-1.117188 5.5-4.308594 10.234376-8.988281 13.332032l-23.820313 15.777344c-3.667969 2.425781-4.671875 7.363281-2.242187 11.03125 1.53125 2.3125 4.0625 3.566406 6.644531 3.566406 1.507812 0 3.035156-.429688 4.386719-1.324219l3.6875-2.441406 12.757812-8.449219c9.660156-6.394531 22.714844-3.742188 29.109375 5.914062 6.394531 9.660157 3.742187 22.714844-5.914063 29.113282l-11.898437 7.878906c-.0625.039062-.125.082031-.1875.125l-11.734375 7.769531c-3.667969 2.425781-4.671875 7.367188-2.242188 11.035157 1.53125 2.3125 4.0625 3.566406 6.644532 3.566406 1.507812 0 3.035156-.429688 4.386718-1.324219l3.6875-2.441406s0-.003907.003907-.003907l12.757812-8.445312c4.675781-3.097656 10.277344-4.191406 15.777344-3.070312 5.5 1.113281 10.234375 4.308593 13.332031 8.984374 3.09375 4.675782 4.183594 10.28125 3.066406 15.777344zm0 0"/>
</symbol>
<symbol id="icon-map" viewBox="0 0 41 32"> //
<title>map</title>
<path d="M9.239 31.927c0.009 0.006 0.021 0.003 0.030 0.009 0.073 0.037 0.149 0.064 0.231 0.064 0.044 0 0.088-0.006 0.132-0.018l10.868-2.966 10.868 2.966c0.044 0.012 0.088 0.018 0.132 0.018 0.082 0 0.158-0.027 0.23-0.065 0.010-0.005 0.021-0.003 0.030-0.009l9-5.5c0.191-0.117 0.281-0.348 0.22-0.563l-4.984-17.5c-0.041-0.147-0.148-0.267-0.29-0.326-0.142-0.057-0.301-0.048-0.436 0.026l-4.962 2.784c-0.24 0.135-0.326 0.44-0.191 0.681s0.439 0.327 0.682 0.191l4.409-2.475 4.707 16.526-8.015 4.899-1.904-15.231c-0.034-0.275-0.293-0.466-0.559-0.434-0.273 0.034-0.468 0.284-0.434 0.558l1.907 15.259-9.91-2.705v-2.73c0-0.276-0.224-0.5-0.5-0.5s-0.5 0.224-0.5 0.5v2.73l-9.911 2.705 1.907-15.259c0.034-0.274-0.16-0.524-0.434-0.558-0.272-0.032-0.524 0.159-0.559 0.434l-1.903 15.231-8.015-4.898 4.707-16.525 4.409 2.475c0.242 0.134 0.546 0.049 0.682-0.191 0.135-0.241 0.049-0.545-0.191-0.681l-4.963-2.785c-0.133-0.075-0.292-0.085-0.435-0.026s-0.249 0.178-0.29 0.326l-4.984 17.5c-0.062 0.216 0.028 0.446 0.22 0.563l8.999 5.5zM20.161 23.368c0.096 0.088 0.217 0.132 0.339 0.132 0.12 0 0.24-0.043 0.336-0.129 0.333-0.303 8.164-7.489 8.164-14.871 0-4.767-3.733-8.5-8.5-8.5s-8.5 3.733-8.5 8.5c0 7.254 7.828 14.56 8.161 14.868zM20.5 1c4.275 0 7.5 3.224 7.5 7.5 0 6.097-5.993 12.337-7.497 13.807-1.501-1.487-7.503-7.809-7.503-13.807 0-4.276 3.225-7.5 7.5-7.5zM25 8.5c0-2.481-2.019-4.5-4.5-4.5s-4.5 2.019-4.5 4.5 2.019 4.5 4.5 4.5 4.5-2.019 4.5-4.5zM20.5 12c-1.93 0-3.5-1.57-3.5-3.5s1.57-3.5 3.5-3.5 3.5 1.57 3.5 3.5-1.57 3.5-3.5 3.5z"></path>
</symbol>
<symbol id="icon-director-chair" viewBox="-66 0 512 512.001"> //
<title>director-chair</title>
<path d="m80.34375 20.007812c5.523438 0 10.003906-4.480468 10.003906-10.003906 0-5.523437-4.480468-10.003906-10.003906-10.003906h-.019531c-5.527344 0-9.992188 4.480469-9.992188 10.003906 0 5.523438 4.488281 10.003906 10.011719 10.003906zm0 0"/><path d="m359.597656 160.058594c11.324219 0 20.535156-9.214844 20.535156-20.539063v-118.984375c0-11.324218-9.210937-20.535156-20.535156-20.535156h-239.027344c-5.523437 0-10 4.480469-10 10.003906 0 5.523438 4.476563 10.003906 10 10.003906h239.027344c.265625 0 .527344.261719.527344.527344v118.984375c0 .269531-.261719.53125-.527344.53125h-339.0625c-.265625 0-.527344-.261719-.527344-.53125v-118.984375c0-.265625.261719-.527344.527344-.527344h31.046875c5.523438 0 10.003907-4.480468 10.003907-10.003906 0-5.523437-4.480469-10.003906-10.003907-10.003906h-31.046875c-11.324218 0-20.535156 9.210938-20.535156 20.535156v118.984375c0 11.324219 9.210938 20.539063 20.535156 20.539063h11.335938v89.417968h-5.863282c-14.339843 0-26.007812 11.667969-26.007812 26.007813 0 14.34375 11.667969 26.011719 26.007812 26.011719h12.605469c.289063.28125.589844.554687.917969.808594l107.8125 82.726562-104.945312 80.523438c-6.058594 4.652343-9.976563 11.964843-10.472657 19.5625-.453125 6.871093 1.871094 13.222656 6.535157 17.890624 5.9375 5.9375 13.277343 8.992188 20.453124 8.992188 5.355469 0 10.625-1.703125 15.152344-5.175781l116-89.007813 116 89.007813c4.527344 3.476562 9.792969 5.175781 15.152344 5.175781 7.175781 0 14.515625-3.054688 20.453125-8.992188 4.667969-4.667968 6.988281-11.019531 6.535156-17.890624-.496093-7.597657-4.414062-14.910157-10.472656-19.5625l-104.941406-80.523438 108.863281-83.535156h12.46875c14.339844 0 26.007812-11.667969 26.007812-26.007813 0-14.34375-11.667968-26.011719-26.007812-26.011719h-5.859375v-89.417968zm-307.71875 0h12.003906v89.417968h-12.003906zm19.464844 141.4375h19.855469c.285156.28125.589843.554687.917969.808594l81.515624 62.550781-9.859374 7.566406zm118.722656 50.75-66.136718-50.75h132.277343zm135.488282 129.179687c1.511718 1.160157 2.566406 3.121094 2.691406 4.996094.070312 1.070313-.171875 1.890625-.71875 2.4375-1.9375 1.9375-6.066406 4.554687-9.277344 2.09375l-111.75-85.75 9.859375-7.5625zm-263.667969 9.527344c-3.207031 2.460937-7.34375-.15625-9.277344-2.09375-.546875-.546875-.789063-1.367187-.71875-2.433594.121094-1.878906 1.179687-3.839843 2.6875-4.996093l234.492187-179.933594h19.722657zm298.242187-215.46875c0 3.253906-2.75 6.003906-6.003906 6.003906h-328.117188c-3.25 0-6-2.75-6-6.003906 0-3.25 2.75-6 6-6h180.207032c5.523437 0 10.003906-4.480469 10.003906-10.003906 0-5.523438-4.480469-10.003907-10.003906-10.003907h-122.324219v-89.417968h212.355469v89.417968h-21.039063c-5.527343 0-10.003906 4.480469-10.003906 10.003907 0 5.523437 4.476563 10.003906 10.003906 10.003906h78.917969c3.253906 0 6.003906 2.75 6.003906 6zm-31.871094-26.007813h-12.003906v-89.417968h12.003906zm0 0"/><path d="m246.445312 249.476562c-5.523437 0-10.003906 4.480469-10.003906 10.003907 0 5.523437 4.480469 10.003906 10.003906 10.003906h.019532c5.523437 0 9.992187-4.480469 9.992187-10.003906 0-5.523438-4.488281-10.003907-10.011719-10.003907zm0 0"/><path d="m241.320312 67.359375c-1.457031-4.652344-5.316406-8.21875-10.046874-9.3125l-19.210938-4.460937-10.132812-16.8125c-2.441407-4.132813-6.9375-6.722657-11.753907-6.761719-.042969 0-.082031 0-.121093 0-4.871094 0-9.273438 2.484375-11.796876 6.664062l-10.191406 16.910157-19.167968 4.457031c-4.683594 1.066406-8.527344 4.578125-10.023438 9.160156-1.519531 4.636719-.519531 9.605469 2.675781 13.292969l12.925781 14.910156-1.6875 19.722656c-.402343 4.832032 1.710938 9.425782 5.648438 12.285156 3.9375 2.851563 8.957031 3.429688 13.441406 1.539063l18.1875-7.691406 17.75 7.507812c1.898438.855469 3.890625 1.28125 5.863282 1.28125 2.742187 0 5.441406-.820312 7.777343-2.441406 4.046875-2.808594 6.304688-7.59375 5.890625-12.515625l-1.691406-19.691406 12.757812-14.71875c3.28125-3.6875 4.367188-8.660156 2.90625-13.324219zm-33.554687 18.136719c-1.769531 2.042968-2.640625 4.714844-2.40625 7.410156l1.171875 13.597656-12.570312-5.316406c-1.242188-.527344-2.566407-.789062-3.894532-.789062s-2.652344.261718-3.894531.789062l-12.5625 5.3125 1.164063-13.597656c.230468-2.691406-.640626-5.363282-2.410157-7.40625l-8.925781-10.292969 13.277344-3.085937c2.632812-.613282 4.90625-2.265626 6.304687-4.582032l7.046875-11.691406 7.046875 11.691406c1.394531 2.316406 3.667969 3.96875 6.300781 4.582032l13.277344 3.082031zm0 0"/>
</symbol>
<symbol id="icon-user" viewBox="0 0 20 20"> //
<title>user</title> 
<path d="M7.725 2.146c-1.016 0.756-1.289 1.953-1.239 2.59 0.064 0.779 0.222 1.793 0.222 1.793s-0.313 0.17-0.313 0.854c0.109 1.717 0.683 0.976 0.801 1.729 0.284 1.814 0.933 1.491 0.933 2.481 0 1.649-0.68 2.42-2.803 3.334-2.13 0.918-4.326 2.073-4.326 4.073v1h18v-1c0-2-2.197-3.155-4.328-4.072-2.123-0.914-2.801-1.684-2.801-3.334 0-0.99 0.647-0.667 0.932-2.481 0.119-0.753 0.692-0.012 0.803-1.729 0-0.684-0.314-0.854-0.314-0.854s0.158-1.014 0.221-1.793c0.065-0.817-0.398-2.561-2.3-3.096-0.333-0.34-0.558-0.881 0.466-1.424-2.24-0.105-2.761 1.067-3.954 1.929z"></path>
</symbol>
<symbol id="icon-stars" viewBox="0 0 512 512.00662"> //
<title>stars</title>
<path d="m499.894531 429.246094c-10.019531-37.457032-44.359375-63.199219-83.125-62.308594h-1.011719l-1.042968-5.058594c-3.699219-12.875-15.871094-21.429687-29.234375-20.542968h-52.675781v-26.191407c34.097656-4.324219 59.675781-33.304687 59.730468-67.675781v-30.589844c5.0625-5.71875 14.355469-19.628906 25.160156-52.042968 9.25-27.75 9.082032-55.703126-.457031-74.785157-5.75-10.652343-13.078125-20.375-21.734375-28.835937-8.96875-8.269532-15.96875-18.445313-20.480468-29.78125-1.160157-3.480469-4.417969-5.832032-8.085938-5.832032-8.175781.367188-16.03125 3.28125-22.46875 8.335938-8.578125-11.800781-22.738281-18.207031-37.265625-16.867188-16.332031.855469-32.410156-4.328124-45.167969-14.566406-2.28125-2.289062-5.664062-3.089844-8.730468-2.0625-18.523438 5.429688-37.734376 8.15625-57.035157 8.09375-17.765625-.984375-34.824219 7.066406-45.359375 21.40625-4.363281-2.601562-9.300781-4.089844-14.375-4.339844-4.710937 0-8.53125 3.820313-8.53125 8.535157 0 11.085937-4.992187 15.585937-13.257812 23.039062-8.207032 6.710938-14.996094 14.988281-19.976563 24.34375-8.800781 17.609375-18.78125 37.566407-.292969 83.789063 6.367188 17.894531 14.753907 35.007812 24.992188 51.003906v31.15625c.058594 34.371094 25.636719 63.351562 59.734375 67.675781v26.191407h-52.617187c-13.34375-.882813-25.507813 7.640624-29.234376 20.488281l-1.054687 5.113281h-1.0625c-38.761719-.890625-73.101563 24.84375-83.125 62.296875l-7.9375 32.164063c-2.777344 11.28125-4.17578125 22.859374-4.16796875 34.476562v7.59375c0 4.714844 3.82031275 8.535156 8.53124975 8.535156h170.640625l.027344.003906.027344-.003906h153.546875l.027344.003906.023437-.003906h170.640625c4.714844 0 8.535156-3.820312 8.535156-8.535156v-7.59375c.007813-11.617188-1.394531-23.191406-4.175781-34.46875zm-147.617187 11.902344c5.332031 6.882812 9.460937 14.617187 12.21875 22.875-15.707032 5.527343-28.917969 16.492187-37.25 30.914062h-2.730469c2.347656-46.699219 22.558594-110.382812 30.335937-133.394531 7.890626 18.980469 11.972657 39.328125 12.019532 59.882812l-12.28125 6.144531c-2.40625 1.230469-4.089844 3.523438-4.542969 6.1875-.457031 2.675782.367187 5.414063 2.230469 7.390626zm-167.519532 53.789062c-8.328124-14.421875-21.539062-25.386719-37.246093-30.914062 2.75-8.214844 6.847656-15.914063 12.125-22.785157 1.9375-1.9375 2.828125-4.691406 2.386719-7.402343-.4375-2.707032-2.152344-5.035157-4.605469-6.261719l-12.285157-6.144531c.046876-20.558594 4.128907-40.90625 12.019532-59.886719 7.777344 23.007812 27.988281 86.699219 30.335937 133.394531zm146.238282-115.085938c-6.03125 4.863282-12.839844 8.675782-20.140625 11.273438-5.09375-5.851562-11.734375-10.148438-19.15625-12.398438 14.703125-7.386718 29.957031-13.625 45.621093-18.65625-1.78125 5.328126-3.957031 12.050782-6.324218 19.78125zm-74.992188 3.230469c-11.042968-10.492187-23.925781-18.855469-38-24.679687h76c-14.078125 5.824218-26.957031 14.1875-38 24.679687zm-81.316406-23.011719c15.667969 5.03125 30.917969 11.269532 45.621094 18.65625-7.417969 2.257813-14.054688 6.550782-19.15625 12.398438-7.296875-2.597656-14.105469-6.410156-20.136719-11.273438-2.371094-7.730468-4.550781-14.453124-6.328125-19.78125zm13.378906 44.105469c4.828125 2.261719 9.875 4.023438 15.0625 5.261719 3.773438.753906 7.585938-1.109375 9.308594-4.550781 5.90625-11.828125 26.132812-12.347657 26.523438-12.351563.816406-.042968 1.625-.207031 2.394531-.488281 3.839843 3.335937 6.113281 6.425781 6.113281 9.023437v17.066407c0 4.710937 3.820312 8.53125 8.535156 8.53125 4.710938 0 8.53125-3.820313 8.53125-8.53125v-17.066407c0-2.601562 2.28125-5.691406 6.121094-9.027343.769531.28125 1.578125.449219 2.398438.492187.097656 0 .832031.007813 1.738281.058594 4.550781.355469 19.777343 2.289062 24.777343 12.289062 1.71875 3.441407 5.535157 5.308594 9.308594 4.554688 5.1875-1.238281 10.234375-3 15.0625-5.261719-8.613281 29.605469-14.144531 60.019531-16.511718 90.761719h-102.851563c-2.367187-30.742188-7.902344-61.15625-16.511719-90.761719zm166.96875-243.589843c-3.195312-4.375-8.28125-6.96875-13.699218-6.984376h-59.734376c-6.066406.019532-11.667968 3.273438-14.691406 8.535157h-21.8125c-3.027344-5.261719-8.625-8.515625-14.695312-8.535157h-59.730469c-5.417969.015626-10.507813 2.609376-13.699219 6.984376l-14.753906-3.675782c.941406-2.542968 1.921875-5.070312 3.101562-7.507812 7.074219-14.535156 19.175782-33.082032 36.582032-38.90625 3.832031-1.300782 7.847656-1.964844 11.894531-1.960938 7.726563.417969 15.359375 1.890625 22.691406 4.371094 12.777344 4.105469 26.09375 6.316406 39.515625 6.5625 13.421875-.246094 26.734375-2.457031 39.515625-6.5625 13.175781-3.707031 22.683594-6.375 34.574219-2.414062 17.417969 5.832031 29.519531 24.375 36.585938 38.890624 1.179687 2.445313 2.164062 4.976563 3.109374 7.527344zm-73.433594 10.082031h59.734376v17.066406c-.015626 14.132813-11.46875 25.585937-25.597657 25.601563h-8.535156c-14.132813-.015626-25.585937-11.46875-25.601563-25.601563zm-51.199218 0v17.066406c-.015625 14.132813-11.46875 25.585937-25.597656 25.601563h-8.535157c-14.132812-.015626-25.585937-11.46875-25.597656-25.601563v-17.066406zm-120.367188-81.515625c4.046875-7.441406 9.53125-14 16.136719-19.300782 8.171875-6.148437 14.269531-14.648437 17.472656-24.363281 1.414063.933594 2.730469 2.011719 3.925781 3.214844 2.089844 2.085937 5.113282 2.945313 7.992188 2.265625 2.875-.675781 5.195312-2.796875 6.132812-5.601562.066407-.199219 6.90625-19.765626 34.574219-19.765626 19.515625-.003906 38.945313-2.558593 57.800781-7.59375 15.511719 10.960938 34.148438 16.617188 53.132813 16.128907 23.894531 0 25.515625 14.316406 25.601563 17.066406-.003907 3.957031 2.71875 7.398437 6.570312 8.304687 3.851562.910157 7.824219-.949218 9.59375-4.488281 2.53125-5.28125 7.074219-9.332031 12.609375-11.242187 5.472656 10.835937 12.726563 20.671875 21.457031 29.101562 7.515625 7.277344 13.894532 15.640625 18.933594 24.808594 7.449219 14.894531 7.269531 38.554688-.457031 61.75-3.339844 10.015625-6.457031 17.945312-9.261719 24.28125-.320312-7.550781-1.414062-15.050781-3.269531-22.375-.027344-.140625.015625-.273438-.019531-.414062-.046876-.191407-.183594-.324219-.242188-.511719-1.636719-6.359375-3.875-12.550781-6.683594-18.488281-8.515625-17.46875-23.5-39.914063-46.53125-47.617188-14.703125-4.167969-30.363281-3.40625-44.59375 2.167969-11.28125 3.667969-23.042968 5.664062-34.90625 5.921875-11.863281-.261719-23.625-2.257813-34.910156-5.929688-14.230469-5.574218-29.894531-6.332031-44.597656-2.160156-23.027344 7.703125-38.007813 30.144531-46.535156 47.636719-2.804688 5.925781-5.039063 12.109375-6.671876 18.460937-.058593.1875-.195312.324219-.246093.515625-.03125.140625.011719.273438-.015625.410157-1.667969 6.570312-2.722656 13.28125-3.148438 20.046874-2.78125-6.074218-5.953125-13.417968-9.550781-22.417968-15.640625-39.109375-8.53125-53.335938-.292969-69.8125zm26.5 158.316406v-58.367188c.039063-5.253906.503906-10.496093 1.390625-15.675781l15.675781 3.910157v10.398437c.03125 23.554687 19.117188 42.640625 42.667969 42.667969h8.535157c23.550781-.027344 42.636718-19.113282 42.664062-42.667969v-8.53125h17.066406v8.53125c.027344 23.554687 19.117188 42.640625 42.667969 42.667969h8.535156c23.550781-.027344 42.636719-19.113282 42.664063-42.667969v-10.398437l15.679687-3.90625c.886719 5.175781 1.351563 10.417968 1.386719 15.671874v58.367188c-.03125 28.265625-22.933594 51.167969-51.199219 51.199219h-136.53125c-28.265625-.03125-51.171875-22.933594-51.203125-51.199219zm59.734375 68.265625h119.46875v25.601563h-119.46875zm-175.523437 149.753906 7.933594-32.179687c7.914062-28.886719 34.101562-48.96875 64.054687-49.109375l-22.882813 110.738281h-52.78125c.066407-9.925781 1.300782-19.8125 3.675782-29.449219zm66.53125 29.449219 26.800781-129.707031c2.28125-4.71875 7.308594-7.464844 12.507813-6.828125h13.339843c-8.328125 21.777344-12.375 44.957031-11.921875 68.265625 0 3.234375 1.824219 6.1875 4.714844 7.632812l8.167969 4.085938c-5.152344 8.941406-9.324219 18.410156-12.441407 28.25-.75 2.25-.527343 4.710937.609376 6.792969 1.136718 2.082031 3.089843 3.597656 5.390624 4.179687 11.273438 3.152344 21.5625 9.113281 29.902344 17.328125zm322.324218 0h-61.945312c8.335938-8.210938 18.617188-14.171875 29.878906-17.324219 2.308594-.574219 4.273438-2.085937 5.417969-4.171875 1.144531-2.082031 1.363281-4.550781.609375-6.808594-3.121094-9.835937-7.292969-19.304687-12.445312-28.246093l8.167968-4.085938c2.890625-1.445312 4.71875-4.398437 4.71875-7.632812.453125-23.308594-3.59375-46.488281-11.921875-68.265625h13.398438c5.210937-.640625 10.25 2.128906 12.507812 6.871094l26.742188 129.664062zm32.554688 0-22.839844-110.734375c29.941406.15625 56.113282 20.238281 64.015625 49.117187l7.933594 32.179688c2.375 9.632812 3.609375 19.511719 3.671875 29.4375zm0 0"/><path d="m221.871094 273.070312h34.132812c42.183594 0 42.667969-24.554687 42.667969-25.601562.023437-4.757812-3.769531-8.660156-8.527344-8.769531-2.234375-.054688-4.398437.796875-6.003906 2.355469-1.601563 1.5625-2.511719 3.703124-2.519531 5.9375-.417969 3.121093-6.308594 9.011718-25.617188 9.011718h-34.132812c-4.714844 0-8.535156 3.820313-8.535156 8.53125 0 4.714844 3.820312 8.535156 8.535156 8.535156zm0 0"/></svg>
</symbol>
<symbol id="icon-long-arrow-right" viewBox="0 0 27 28"> //
<title>long-arrow-right</title>
<path d="M27 13.953c0 0.141-0.063 0.281-0.156 0.375l-6 5.531c-0.156 0.141-0.359 0.172-0.547 0.094-0.172-0.078-0.297-0.25-0.297-0.453v-3.5h-19.5c-0.281 0-0.5-0.219-0.5-0.5v-3c0-0.281 0.219-0.5 0.5-0.5h19.5v-3.5c0-0.203 0.109-0.375 0.297-0.453s0.391-0.047 0.547 0.078l6 5.469c0.094 0.094 0.156 0.219 0.156 0.359v0z"></path>
</symbol>
</defs>
</svg>
